<?xml version="1.0" encoding="utf-8"?>
<svg version="1.1" id="Layer_2" xmlns="http://www.w3.org/2000/svg" xmlns:xlink="http://www.w3.org/1999/xlink" x="0px" y="0px"
	 viewBox="0 0 666 101" style="enable-background:new 0 0 666 101;" xml:space="preserve">
<style type="text/css">
	.st0{filter:url(#Adobe_OpacityMaskFilter);}
	.st1{fill-rule:evenodd;clip-rule:evenodd;fill:#FFFFFF;}
	.st2{mask:url(#mask-2_00000124160940867475525480000001114363728007102143_);fill-rule:evenodd;clip-rule:evenodd;fill:#181819;}
	.st3{fill-rule:evenodd;clip-rule:evenodd;fill:#2A2A2A;}
	.st4{filter:url(#Adobe_OpacityMaskFilter_00000139989722321733344840000017830731246470684814_);}
	.st5{mask:url(#mask-2_00000020365500435852245670000006950111149345224848_);fill:#020202;}
</style>
<g id="logo.com-drk_00000159448071580668789900000007565942845805144467_">
	<g id="Group-36_00000029756227201352421920000014407042864623844788_">
		<g id="Group-3_1_" transform="translate(0.000000, 0.481900)">
			<g id="Clip-2_1_">
			</g>
			<defs>
				<filter id="Adobe_OpacityMaskFilter" filterUnits="userSpaceOnUse" x="1" y="1.1" width="98" height="98">
					<feColorMatrix  type="matrix" values="1 0 0 0 0  0 1 0 0 0  0 0 1 0 0  0 0 0 1 0"/>
				</filter>
			</defs>
			
				<mask maskUnits="userSpaceOnUse" x="1" y="1.1" width="98" height="98" id="mask-2_00000124160940867475525480000001114363728007102143_">
				<g class="st0">
					<polygon id="path-1_00000150811364072805798940000008451761083525361538_" class="st1" points="0,0.1 99.5,0.1 99.5,99.6 
						0,99.6 					"/>
				</g>
			</mask>
			<path id="Rectangle_1_" class="st2" d="M9,1.1h82c4.4,0,8,3.6,8,8v82c0,4.4-3.6,8-8,8H9c-4.4,0-8-3.6-8-8v-82
				C1,4.7,4.6,1.1,9,1.1z"/>
		</g>
		<path id="Fill-4_1_" class="st1" d="M60,83.2c-2.8,1.5-6.4,2.4-8.5,2.6c-8.4,0.7-16.8-1.5-22.6-7.1c-5.7-6-6.9-14-1.7-20.6
			c4.8-6.1,12.6-8.8,20.7-9.1c4.5-0.2,19.7,1.6,15.2,8.9c-3.6,6-13.5,0-19.2,1.9c-6.4,2.1-8.2,10.6-2.2,14.2
			c4.4,2.6,10.7,2.4,14.9-0.3c6-3.9,17.2-22.2,24.4-13.5C82.4,62,65.5,80.2,60,83.2 M17.8,35.8c-0.6-3,0.2-6.4,3.2-6
			c2.6,0.4,3.5,4.1,4,6.7c0.4,2.2,5.8,17.8,3,17.3C25.3,53.2,18.4,38.9,17.8,35.8 M32.2,18.3c4-3.4,5.9,2.4,6.4,5.3
			c0.4,2.8,5.5,24,0.1,23.6c-4.1-0.3-6.9-18.3-7.2-21.1C31.1,23.9,30.2,20,32.2,18.3 M52.8,12.3c3.4,0.7,2.5,7.7,2.4,10.3
			c0,2.8,0.3,23.7-4.1,23.1C46.6,45,47.7,24.3,47.5,21C47.6,17.6,48.1,11.4,52.8,12.3 M63.2,27.3c0.4-2.1,0.8-6,3.2-6.9
			c4.7-1.9,4.6,4,4.1,6.8C69.9,29.9,66.3,51,61.5,49C57.9,47.5,62.6,30,63.2,27.3"/>
		<path id="Fill-6_1_" class="st3" d="M124.9,39.6c1.9-3.4,4.5-6,7.9-7.9c3.3-1.9,7.1-2.8,11.2-2.8c4.8,0,9.1,1.2,12.7,3.7
			c3.6,2.5,6.2,5.9,7.6,10.3h-10c-1-2.1-2.4-3.6-4.2-4.7c-1.8-1-3.9-1.5-6.2-1.5c-2.5,0-4.8,0.6-6.7,1.8c-2,1.2-3.5,2.8-4.6,5
			c-1.1,2.2-1.6,4.7-1.6,7.6c0,2.9,0.5,5.4,1.6,7.5c1.1,2.2,2.6,3.8,4.6,5c2,1.2,4.2,1.8,6.7,1.8c2.4,0,4.4-0.5,6.2-1.6
			c1.8-1.1,3.2-2.6,4.2-4.7h10c-1.4,4.4-4,7.9-7.6,10.3c-3.6,2.5-7.9,3.7-12.7,3.7c-4.1,0-7.9-0.9-11.2-2.8c-3.3-1.9-6-4.5-7.9-7.8
			c-1.9-3.3-2.9-7.2-2.9-11.4C122,46.8,123,43,124.9,39.6"/>
		<path id="Fill-8_1_" class="st3" d="M189,64.6c1.4-0.8,2.5-1.9,3.3-3.4s1.2-3.4,1.2-5.6c0-3.3-0.9-5.8-2.6-7.5
			c-1.7-1.8-3.8-2.6-6.3-2.6c-2.5,0-4.6,0.9-6.2,2.6s-2.5,4.3-2.5,7.5c0,3.3,0.8,5.8,2.4,7.5c1.6,1.8,3.7,2.6,6.2,2.6
			C186.1,65.8,187.6,65.4,189,64.6 M175.6,71.1c-2.6-1.5-4.7-3.5-6.2-6.2c-1.5-2.7-2.3-5.8-2.3-9.3c0-3.5,0.8-6.6,2.3-9.3
			c1.6-2.7,3.7-4.8,6.4-6.2c2.7-1.5,5.7-2.2,9-2.2c3.3,0,6.3,0.7,9,2.2c2.7,1.5,4.8,3.5,6.4,6.2c1.6,2.7,2.3,5.8,2.3,9.3
			c0,3.5-0.8,6.6-2.4,9.3c-1.6,2.7-3.7,4.8-6.4,6.2c-2.7,1.5-5.7,2.2-9.1,2.2C181.2,73.3,178.2,72.6,175.6,71.1"/>
		<path id="Fill-10_1_" class="st3" d="M235.3,41.8c2.5,2.6,3.8,6.2,3.8,10.8v20.1h-8.7v-19c0-2.7-0.7-4.8-2-6.3
			c-1.4-1.5-3.2-2.2-5.6-2.2c-2.4,0-4.3,0.7-5.7,2.2c-1.4,1.5-2.1,3.6-2.1,6.3v19h-8.7V38.4h8.7v4.3c1.2-1.5,2.6-2.7,4.4-3.5
			c1.8-0.8,3.8-1.3,5.9-1.3C229.5,37.9,232.8,39.2,235.3,41.8"/>
		<path id="Fill-12_1_" class="st3" d="M244.8,46.3c1.4-2.7,3.5-4.7,6-6.2c2.6-1.5,5.5-2.2,8.8-2.2c4.3,0,7.8,1.1,10.6,3.2
			c2.8,2.1,4.7,5.1,5.6,9h-9.4c-0.5-1.5-1.3-2.7-2.5-3.5c-1.2-0.8-2.6-1.3-4.4-1.3c-2.5,0-4.4,0.9-5.9,2.7c-1.4,1.8-2.2,4.3-2.2,7.7
			c0,3.3,0.7,5.8,2.2,7.6c1.4,1.8,3.4,2.7,5.9,2.7c3.5,0,5.8-1.6,6.9-4.7h9.4c-1,3.7-2.8,6.7-5.6,8.9c-2.8,2.2-6.3,3.3-10.5,3.3
			c-3.3,0-6.2-0.7-8.8-2.2c-2.6-1.5-4.6-3.5-6-6.2c-1.4-2.7-2.2-5.8-2.2-9.3C242.6,52,243.3,48.9,244.8,46.3"/>
		<path id="Fill-14_1_" class="st3" d="M292.8,39.5c1.8-1,3.9-1.5,6.2-1.5V47h-2.3c-2.7,0-4.8,0.6-6.2,1.9c-1.4,1.3-2.1,3.5-2.1,6.7
			v17.1h-8.7V38.4h8.7v5.3C289.5,41.9,291,40.5,292.8,39.5"/>
		<path id="Fill-16_1_" class="st3" d="M325.2,52.4c0-2.2-0.8-4-2.4-5.4c-1.6-1.3-3.5-2-5.8-2c-2.1,0-4,0.7-5.4,2
			c-1.5,1.3-2.4,3.1-2.7,5.4H325.2z M334,58.2h-25.1c0.2,2.5,1.1,4.4,2.6,5.8c1.5,1.4,3.4,2.1,5.6,2.1c3.2,0,5.5-1.4,6.9-4.2h9.4
			c-1,3.3-2.9,6-5.7,8.2c-2.8,2.1-6.3,3.2-10.4,3.2c-3.3,0-6.3-0.7-8.9-2.2c-2.6-1.5-4.7-3.5-6.1-6.2c-1.5-2.7-2.2-5.8-2.2-9.3
			c0-3.6,0.7-6.7,2.2-9.4c1.4-2.7,3.5-4.8,6.1-6.2c2.6-1.4,5.6-2.2,9-2.2c3.3,0,6.2,0.7,8.8,2.1c2.6,1.4,4.6,3.4,6,6
			c1.4,2.6,2.1,5.5,2.1,8.9C334.2,56.1,334.1,57.2,334,58.2L334,58.2z"/>
		<path id="Fill-18_1_" class="st3" d="M348.1,45.6v16.6c0,1.2,0.3,2,0.8,2.5c0.6,0.5,1.5,0.8,2.8,0.8h4v7.3h-5.5
			c-7.3,0-11-3.6-11-10.7V45.6h-4.1v-7.1h4.1v-8.5h8.7v8.5h7.7v7.1H348.1z"/>
		<path id="Fill-20_1_" class="st3" d="M382.6,52.4c0-2.2-0.8-4-2.4-5.4c-1.6-1.3-3.5-2-5.8-2c-2.1,0-4,0.7-5.4,2
			c-1.5,1.3-2.4,3.1-2.7,5.4H382.6z M391.3,58.2h-25.1c0.2,2.5,1.1,4.4,2.6,5.8c1.5,1.4,3.4,2.1,5.6,2.1c3.2,0,5.5-1.4,6.9-4.2h9.4
			c-1,3.3-2.9,6-5.7,8.2c-2.8,2.1-6.3,3.2-10.4,3.2c-3.3,0-6.3-0.7-8.9-2.2c-2.6-1.5-4.7-3.5-6.1-6.2c-1.5-2.7-2.2-5.8-2.2-9.3
			c0-3.6,0.7-6.7,2.2-9.4c1.4-2.7,3.5-4.8,6.1-6.2c2.6-1.4,5.6-2.2,9-2.2c3.3,0,6.2,0.7,8.8,2.1c2.6,1.4,4.6,3.4,6,6
			c1.4,2.6,2.1,5.5,2.1,8.9C391.5,56.1,391.5,57.2,391.3,58.2L391.3,58.2z"/>
		<path id="Fill-22_1_" class="st3" d="M396.2,39.6c1.9-3.4,4.5-6,7.9-7.9c3.3-1.9,7.1-2.8,11.2-2.8c4.8,0,9.1,1.2,12.7,3.7
			c3.6,2.5,6.2,5.9,7.6,10.3h-10c-1-2.1-2.4-3.6-4.2-4.7c-1.8-1-3.9-1.5-6.2-1.5c-2.5,0-4.8,0.6-6.7,1.8c-2,1.2-3.5,2.8-4.6,5
			c-1.1,2.2-1.6,4.7-1.6,7.6c0,2.9,0.5,5.4,1.6,7.5s2.6,3.8,4.6,5c2,1.2,4.2,1.8,6.7,1.8c2.4,0,4.4-0.5,6.2-1.6
			c1.8-1.1,3.2-2.6,4.2-4.7h10c-1.4,4.4-4,7.9-7.6,10.3c-3.6,2.5-7.9,3.7-12.7,3.7c-4.1,0-7.9-0.9-11.2-2.8c-3.3-1.9-6-4.5-7.9-7.8
			c-1.9-3.3-2.9-7.2-2.9-11.4C393.3,46.8,394.2,43,396.2,39.6"/>
		<polygon id="Fill-24_1_" class="st3" points="487.7,29.5 487.7,72.8 479,72.8 479,44.6 467.4,72.8 460.9,72.8 449.2,44.6 
			449.2,72.8 440.5,72.8 440.5,29.5 450.4,29.5 464.1,61.7 477.9,29.5 		"/>
		<path id="Fill-26_1_" class="st3" d="M500.6,71.7c-2.4-1-4.3-2.5-5.7-4.5c-1.4-1.9-2.1-4.2-2.2-6.9h9.3c0.1,1.8,0.8,3.2,1.9,4.2
			c1.1,1,2.7,1.6,4.7,1.6c2,0,3.6-0.5,4.8-1.5c1.2-1,1.7-2.2,1.7-3.8c0-1.3-0.4-2.3-1.2-3.2c-0.8-0.8-1.8-1.5-2.9-2
			c-1.2-0.5-2.8-1-4.9-1.6c-2.8-0.8-5.1-1.6-6.9-2.4c-1.8-0.8-3.3-2-4.5-3.7c-1.3-1.6-1.9-3.8-1.9-6.5c0-2.6,0.6-4.8,1.9-6.7
			c1.3-1.9,3.1-3.4,5.4-4.4c2.3-1,5-1.5,7.9-1.5c4.5,0,8.1,1.1,10.9,3.3c2.8,2.2,4.3,5.2,4.6,9.1H514c-0.1-1.5-0.7-2.7-1.9-3.7
			c-1.2-1-2.7-1.5-4.7-1.5c-1.7,0-3,0.4-4.1,1.3c-1,0.9-1.5,2.1-1.5,3.8c0,1.2,0.4,2.1,1.1,2.9c0.8,0.8,1.7,1.4,2.9,1.9
			c1.1,0.5,2.7,1,4.8,1.6c2.8,0.8,5.1,1.7,6.9,2.5c1.8,0.8,3.3,2.1,4.6,3.7c1.3,1.7,1.9,3.8,1.9,6.5c0,2.3-0.6,4.5-1.8,6.4
			c-1.2,2-3,3.6-5.3,4.7s-5.1,1.8-8.2,1.8C505.7,73.2,503,72.7,500.6,71.7"/>
		<path id="Fill-28_1_" class="st3" d="M528.2,72.2c-0.6-0.6-0.9-1.4-0.9-2.3c0-0.9,0.3-1.7,0.9-2.3c0.6-0.6,1.4-0.9,2.3-0.9
			c0.9,0,1.6,0.3,2.2,0.9c0.6,0.6,0.9,1.4,0.9,2.3c0,0.9-0.3,1.7-0.9,2.3c-0.6,0.6-1.3,0.9-2.2,0.9
			C529.6,73.1,528.8,72.8,528.2,72.2"/>
		<path id="Fill-30_1_" class="st3" d="M538.7,46.6c1.4-2.6,3.3-4.7,5.8-6.1c2.5-1.4,5.3-2.1,8.5-2.1c4.2,0,7.6,1,10.3,3.1
			c2.7,2.1,4.5,4.9,5.2,8.4h-4.7c-0.6-2.4-1.8-4.3-3.8-5.7c-1.9-1.4-4.3-2.1-7.2-2.1c-2.3,0-4.3,0.5-6.1,1.5c-1.8,1-3.3,2.6-4.3,4.6
			c-1.1,2-1.6,4.6-1.6,7.5c0,3,0.5,5.5,1.6,7.6c1.1,2.1,2.5,3.6,4.3,4.6c1.8,1,3.9,1.6,6.1,1.6c2.9,0,5.2-0.7,7.2-2.1
			s3.2-3.3,3.8-5.8h4.7c-0.8,3.5-2.5,6.3-5.3,8.4c-2.7,2.1-6.2,3.2-10.3,3.2c-3.2,0-6-0.7-8.5-2.1c-2.5-1.4-4.4-3.5-5.8-6.1
			c-1.4-2.6-2.1-5.7-2.1-9.2C536.6,52.3,537.3,49.3,538.7,46.6"/>
		<path id="Fill-32_1_" class="st3" d="M595.1,68c1.9-1,3.4-2.5,4.6-4.6c1.2-2,1.8-4.6,1.8-7.5c0-3-0.6-5.5-1.7-7.5
			c-1.2-2-2.7-3.6-4.6-4.6c-1.9-1-4-1.5-6.2-1.5c-2.2,0-4.3,0.5-6.2,1.5c-1.9,1-3.4,2.5-4.6,4.6c-1.1,2-1.7,4.6-1.7,7.5
			c0,3,0.6,5.5,1.7,7.5s2.6,3.6,4.5,4.6c1.9,1,3.9,1.5,6.2,1.5C591.1,69.5,593.2,69,595.1,68 M580.3,71.1c-2.5-1.4-4.5-3.5-6-6.1
			c-1.5-2.6-2.2-5.7-2.2-9.2c0-3.5,0.7-6.6,2.2-9.2c1.5-2.6,3.5-4.7,6.1-6.1c2.6-1.4,5.4-2.1,8.6-2.1c3.2,0,6.1,0.7,8.6,2.1
			c2.6,1.4,4.6,3.5,6.1,6.1c1.5,2.6,2.2,5.7,2.2,9.2c0,3.5-0.7,6.5-2.2,9.2c-1.5,2.6-3.5,4.7-6.1,6.1c-2.6,1.4-5.5,2.1-8.7,2.1
			C585.7,73.3,582.8,72.6,580.3,71.1"/>
		<path id="Fill-34_1_" class="st3" d="M661.4,42c2.5,2.5,3.8,6.1,3.8,10.9v19.8h-4.3V53.4c0-3.7-0.9-6.5-2.7-8.4
			c-1.8-1.9-4.2-2.9-7.3-2.9c-3.2,0-5.7,1.1-7.6,3.2c-1.9,2.1-2.9,5.2-2.9,9.2v18.4h-4.3V53.4c0-3.7-0.9-6.5-2.7-8.4
			c-1.8-1.9-4.2-2.9-7.3-2.9c-3.2,0-5.7,1.1-7.6,3.2c-1.9,2.1-2.9,5.2-2.9,9.2v18.4h-4.3V38.9h4.3v5.8c1.1-2.1,2.6-3.7,4.6-4.8
			c2-1.1,4.2-1.6,6.6-1.6c2.9,0,5.5,0.7,7.7,2.1c2.2,1.4,3.8,3.5,4.8,6.2c0.9-2.7,2.5-4.7,4.7-6.2s4.7-2.1,7.5-2.1
			C655.7,38.3,658.9,39.5,661.4,42"/>
	</g>
</g>
<defs>
	
		<filter id="Adobe_OpacityMaskFilter_00000106865374529196530670000012571992590947149732_" filterUnits="userSpaceOnUse" x="523.4" y="13" width="14.1" height="14.1">
		<feColorMatrix  type="matrix" values="1 0 0 0 0  0 1 0 0 0  0 0 1 0 0  0 0 0 1 0"/>
	</filter>
</defs>
<mask maskUnits="userSpaceOnUse" x="523.4" y="13" width="14.1" height="14.1" id="mask-2_00000020365500435852245670000006950111149345224848_">
	<g style="filter:url(#Adobe_OpacityMaskFilter_00000106865374529196530670000012571992590947149732_);">
		<polygon id="path-1_00000141456858521188533570000014745730028964068998_" class="st1" points="185.8,-296.2 571,-296.2 571,89 
			185.8,89 		"/>
	</g>
</mask>
<path id="_xAE_-copy_2_" class="st5" d="M530.5,27.2c1.4,0,2.6-0.3,3.6-0.9c1.1-0.6,1.9-1.5,2.5-2.5c0.6-1.1,0.9-2.3,0.9-3.6
	c0-1.3-0.3-2.6-0.9-3.6c-0.6-1.1-1.4-1.9-2.5-2.5c-1.1-0.6-2.3-0.9-3.6-0.9s-2.6,0.3-3.7,0.9c-1.1,0.6-1.9,1.5-2.5,2.5
	c-0.6,1.1-0.9,2.3-0.9,3.6c0,1.3,0.3,2.5,0.9,3.6c0.6,1.1,1.4,1.9,2.5,2.5C527.9,26.9,529.1,27.2,530.5,27.2z M530.5,26
	c-1.7,0-3.1-0.6-4.2-1.7s-1.6-2.5-1.6-4.2c0-1.7,0.5-3.1,1.6-4.2s2.5-1.7,4.2-1.7c1.7,0,3.1,0.6,4.2,1.7s1.6,2.5,1.6,4.2
	c0,1.7-0.5,3.1-1.6,4.2S532.2,26,530.5,26z M529.2,23.8v-3h0.8l2,3l1.8,0l-2.1-3c0.6-0.1,1.1-0.4,1.4-0.8c0.3-0.4,0.5-0.9,0.5-1.5
	c0-0.7-0.2-1.3-0.7-1.7c-0.5-0.4-1.1-0.6-1.9-0.6l0,0h-3.3v7.6H529.2z M530.9,19.6h-1.7v-1.9h1.7c0.3,0,0.6,0.1,0.8,0.2
	c0.2,0.2,0.3,0.4,0.3,0.7s-0.1,0.6-0.3,0.7C531.5,19.5,531.2,19.6,530.9,19.6L530.9,19.6z"/>
</svg>
