<?xml version="1.0" encoding="UTF-8"?>
<svg width="251px" height="40px" viewBox="0 0 251 40" version="1.1" xmlns="http://www.w3.org/2000/svg" xmlns:xlink="http://www.w3.org/1999/xlink">
    <title>Concrete Logo - Horizontal</title>
    <defs>
        <polygon id="path-1" points="0 0 39.7330936 0 39.7330936 39.3988119 0 39.3988119"></polygon>
        <polygon id="path-3" points="0 0 13.5449916 0 13.5449916 20.1837624 0 20.1837624"></polygon>
    </defs>
    <g id="Documentation" stroke="none" stroke-width="1" fill="none" fill-rule="evenodd">
        <g id="Documentation-Landing" transform="translate(-130.000000, -10.000000)">
            <g id="Group" transform="translate(130.000000, 10.000000)">
                <g id="Group-37" transform="translate(0.000019, 0.396040)">
                    <g id="Group-3">
                        <mask id="mask-2" fill="white">
                            <use xlink:href="#path-1"></use>
                        </mask>
                        <g id="Clip-2"></g>
                        <rect id="Rectangle" fill="#017DDD" mask="url(#mask-2)" x="0.399380738" y="0.396039604" width="39.1411411" height="38.8118812" rx="3.2"></rect>
                    </g>
                    <path d="M24.0917132,32.6864554 C22.9853768,33.2991287 21.5371546,33.6698218 20.6924249,33.7466535 C17.3494519,34.0488317 13.9793198,33.2211089 11.6380405,31.0147723 C9.33789936,28.6642772 8.83705251,25.5082376 10.8807792,22.8761584 C12.7779264,20.4325941 15.8832567,19.3660594 19.1175931,19.2112079 C20.9108964,19.1236832 26.9813678,19.7557624 25.2327973,22.6931881 C23.8141306,25.0773465 19.8257282,22.742297 17.5631306,23.5062574 C15.0181576,24.3648713 14.3084249,27.7411089 16.739569,29.1284356 C18.5145,30.1430891 21.027521,30.0353663 22.6738453,28.941505 C25.0602567,27.3577426 29.4484579,20.1074455 32.3748573,23.501901 C32.9663678,24.1874455 26.2852147,31.4702178 24.0917132,32.6864554 M7.0493408,14.0500198 C6.79372518,12.8630891 7.10925071,11.5054653 8.3134399,11.6690297 C9.34828374,11.811604 9.74608554,13.2666535 9.92661407,14.2983366 C10.0771876,15.1510099 12.3042387,21.342297 11.181527,21.1300198 C10.1259144,20.931604 7.3141426,15.2832871 7.0493408,14.0500198 M12.7511666,7.0729901 C14.3359834,5.7280396 15.1319864,8.00883168 15.3137132,9.1470495 C15.4942417,10.2650693 17.5846982,18.6444752 15.4447162,18.5054653 C13.7951967,18.3977426 12.6393348,11.291604 12.48956,10.1660594 C12.3321967,9.29675248 11.9563618,7.74784158 12.7511666,7.0729901 M20.9508363,4.61992079 C22.327566,4.87140594 21.9569234,7.67417822 21.9641126,8.68249505 C21.9732988,9.80605941 22.1666081,18.0698218 20.4280225,17.8413069 C18.6091576,17.6028911 18.9562357,9.3929901 18.8663708,8.0690297 C18.8951276,6.74269307 19.0616771,4.27378218 20.9508363,4.61992079 M25.152518,10.5411089 C25.2911096,9.70110891 25.4496711,8.17754455 26.3930525,7.80209901 C28.2722267,7.05041584 28.2590465,9.36685149 28.056551,10.4607129 C27.8568513,11.5335842 26.480521,19.8951683 24.5761846,19.1268515 C23.1075931,18.5327921 24.9248603,11.612 25.152518,10.5411089" id="Fill-4" fill="#FFFFFF"></path>
                    <path d="M49.8933537,15.061703 C50.6609994,13.7278416 51.7090234,12.6882376 53.0382246,11.9432871 C54.3670264,11.1987327 55.8567861,10.8260594 57.5079033,10.8260594 C59.4393988,10.8260594 61.1312546,11.3171485 62.5842696,12.2993267 C64.0368852,13.281505 65.0521585,14.6407129 65.6300894,16.3753663 L61.6432846,16.3753663 C61.2470804,15.5571485 60.6899183,14.9432871 59.9717982,14.5337822 C59.253678,14.1246733 58.4241255,13.9199208 57.4831405,13.9199208 C56.4758552,13.9199208 55.5800024,14.1531881 54.7963807,14.6197228 C54.0119603,15.0862574 53.4008792,15.7456634 52.9639363,16.5963564 C52.5261946,17.4478416 52.3077231,18.4462574 52.3077231,19.592 C52.3077231,20.721505 52.5261946,21.7159604 52.9639363,22.5753663 C53.4008792,23.4347723 54.0119603,24.0977426 54.7963807,24.5642772 C55.5800024,25.0308119 56.4758552,25.2640792 57.4831405,25.2640792 C58.4241255,25.2640792 59.253678,25.0553663 59.9717982,24.6379406 C60.6899183,24.2205149 61.2470804,23.6026931 61.6432846,22.7840792 L65.6300894,22.7840792 C65.0521585,24.5357624 64.0408792,25.8985347 62.596651,26.872396 C61.151624,27.8466535 59.4553747,28.3333861 57.5079033,28.3333861 C55.8567861,28.3333861 54.3670264,27.9611089 53.0382246,27.2161584 C51.7090234,26.471604 50.6609994,25.4359604 49.8933537,24.1100198 C49.1257081,22.7840792 48.7418852,21.2783366 48.7418852,19.592 C48.7418852,17.9064554 49.1257081,16.3963564 49.8933537,15.061703" id="Fill-6" fill="#FFFFFF"></path>
                    <path d="M75.4728483,24.9572673 C76.0256171,24.654297 76.4673528,24.2000396 76.7976561,23.594495 C77.1279594,22.9889505 77.2929114,22.2523168 77.2929114,21.3845941 C77.2929114,20.0915248 76.9502267,19.0970693 76.2652567,18.4012277 C75.5802867,17.7053861 74.7423468,17.3576634 73.7518363,17.3576634 C72.7613258,17.3576634 71.9317732,17.7053861 71.2631786,18.4012277 C70.594584,19.0970693 70.2602867,20.0915248 70.2602867,21.3845941 C70.2602867,22.6780594 70.5861967,23.6721188 71.2384159,24.3679604 C71.8902357,25.063802 72.7118003,25.4115248 73.7023108,25.4115248 C74.3297672,25.4115248 74.9196801,25.2602376 75.4728483,24.9572673 M70.1364729,27.5354851 C69.0800615,26.954495 68.250509,26.1319208 67.6478153,25.0677624 C67.0451216,24.003604 66.7439744,22.7762772 66.7439744,21.3845941 C66.7439744,19.9933069 67.053509,18.7655842 67.672578,17.7014257 C68.2916471,16.6376634 69.137575,15.8150891 70.2107612,15.233703 C71.283548,14.6527129 72.480548,14.3620198 73.8013618,14.3620198 C75.1221756,14.3620198 76.3187762,14.6527129 77.3919624,15.233703 C78.4647492,15.8150891 79.3110765,16.6376634 79.9301456,17.7014257 C80.5492147,18.7655842 80.8587492,19.9933069 80.8587492,21.3845941 C80.8587492,22.7762772 80.5408273,24.003604 79.9053828,25.0677624 C79.269539,26.1319208 78.4112297,26.954495 77.3300555,27.5354851 C76.2484819,28.1168713 75.0395,28.4071683 73.7023108,28.4071683 C72.381497,28.4071683 71.1928843,28.1168713 70.1364729,27.5354851" id="Fill-8" fill="#FFFFFF"></path>
                    <path d="M93.9827339,15.9210693 C94.9896198,16.9444356 95.4932624,18.3725545 95.4932624,20.2058218 L95.4932624,28.1860198 L92.0264756,28.1860198 L92.0264756,20.6723564 C92.0264756,19.5919604 91.7540852,18.7614653 91.2093045,18.1800792 C90.6645237,17.5994851 89.9216408,17.308396 88.9806558,17.308396 C88.0232955,17.308396 87.2680312,17.5994851 86.714863,18.1800792 C86.1616949,18.7614653 85.8853105,19.5919604 85.8853105,20.6723564 L85.8853105,28.1860198 L82.4185237,28.1860198 L82.4185237,14.5828515 L85.8853105,14.5828515 L85.8853105,16.2771089 C86.3474156,15.687802 86.9377279,15.2256238 87.655848,14.8897822 C88.3739681,14.5543366 89.1619831,14.3864158 90.0206918,14.3864158 C91.6550342,14.3864158 92.975848,14.898099 93.9827339,15.9210693" id="Fill-10" fill="#FFFFFF"></path>
                    <path d="M97.7713567,17.6891485 C98.3488882,16.6333069 99.149684,15.8150891 100.173345,15.233703 C101.197005,14.6527129 102.368843,14.3620198 103.689657,14.3620198 C105.3903,14.3620198 106.797384,14.783802 107.912107,15.6265743 C109.026032,16.4697426 109.77251,17.6523168 110.152738,19.1746931 L106.413561,19.1746931 C106.215459,18.5853861 105.881561,18.1232079 105.41027,17.7873663 C104.940177,17.4519208 104.358252,17.284 103.664495,17.284 C102.674384,17.284 101.890363,17.6400396 101.312432,18.3521188 C100.734501,19.064198 100.445735,20.0748911 100.445735,21.3845941 C100.445735,22.6780594 100.734501,23.6804356 101.312432,24.3925149 C101.890363,25.1045941 102.674384,25.4606337 103.664495,25.4606337 C105.067984,25.4606337 105.983807,24.8388515 106.413561,23.594495 L110.152738,23.594495 C109.77251,25.0677624 109.022038,26.2380594 107.899726,27.1057822 C106.776216,27.973505 105.373924,28.4071683 103.689657,28.4071683 C102.368843,28.4071683 101.197005,28.1168713 100.173345,27.5354851 C99.149684,26.954495 98.3488882,26.1358812 97.7713567,25.0800396 C97.1934258,24.024198 96.90466,22.7925149 96.90466,21.3845941 C96.90466,19.9766733 97.1934258,18.7449901 97.7713567,17.6891485" id="Fill-12" fill="#FFFFFF"></path>
                    <path d="M116.925194,15.000396 C117.643314,14.5912871 118.464479,14.3865347 119.389089,14.3865347 L119.389089,17.9960396 L118.472867,17.9960396 C117.382906,17.9960396 116.56174,18.249901 116.008972,18.7572277 C115.455404,19.2649505 115.179419,20.1489109 115.179419,21.4091089 L115.179419,28.1861386 L111.712632,28.1861386 L111.712632,14.5829703 L115.179419,14.5829703 L115.179419,16.6946535 C115.625149,15.9742574 116.207074,15.409901 116.925194,15.000396" id="Fill-14" fill="#FFFFFF"></path>
                    <path d="M129.888101,20.1077228 C129.871725,19.2237624 129.54941,18.5156436 128.922353,17.9837624 C128.294897,17.4518812 127.527251,17.1857426 126.619416,17.1857426 C125.761107,17.1857426 125.038593,17.4435644 124.453074,17.9592079 C123.866756,18.4748515 123.507296,19.1912871 123.375494,20.1077228 L129.888101,20.1077228 Z M133.37965,22.4158416 L123.350731,22.4158416 C123.433407,23.3980198 123.780086,24.1675248 124.390768,24.7239604 C125.001449,25.2807921 125.752719,25.5588119 126.644179,25.5588119 C127.932242,25.5588119 128.848065,25.010297 129.392846,23.9136634 L133.132023,23.9136634 C132.735819,25.2233663 131.97656,26.299802 130.853849,27.1425743 C129.730737,27.9857426 128.35281,28.4071287 126.718467,28.4071287 C125.397653,28.4071287 124.213434,28.1168317 123.165011,27.5354455 C122.116587,26.9544554 121.299416,26.1318812 120.713497,25.0677228 C120.127578,24.0035644 119.834419,22.7762376 119.834419,21.3845545 C119.834419,19.9766337 120.123185,18.7409901 120.701116,17.6768317 C121.278647,16.6130693 122.08823,15.7944554 123.127867,15.2213861 C124.168302,14.6487129 125.364903,14.3619802 126.718467,14.3619802 C128.022506,14.3619802 129.19075,14.640396 130.222398,15.1968317 C131.254047,15.7532673 132.054843,16.5433663 132.624786,17.5663366 C133.19393,18.589703 133.478701,19.7639604 133.478701,21.089901 C133.478701,21.5809901 133.445551,22.0229703 133.37965,22.4158416 L133.37965,22.4158416 Z" id="Fill-16" fill="#FFFFFF"></path>
                    <path d="M139.050123,17.4068119 L139.050123,23.9874059 C139.050123,24.4456238 139.161556,24.7771089 139.384421,24.9818614 C139.607685,25.1866139 139.982721,25.2887921 140.511126,25.2887921 L142.120706,25.2887921 L142.120706,28.1862178 L139.941583,28.1862178 C137.019577,28.1862178 135.558574,26.7786931 135.558574,23.9628515 L135.558574,17.4068119 L133.924231,17.4068119 L133.924231,14.5830495 L135.558574,14.5830495 L135.558574,11.2190891 L139.050123,11.2190891 L139.050123,14.5830495 L142.120706,14.5830495 L142.120706,17.4068119 L139.050123,17.4068119 Z" id="Fill-18" fill="#FFFFFF"></path>
                    <path d="M152.793137,20.1077228 C152.776762,19.2237624 152.454447,18.5156436 151.827389,17.9837624 C151.199933,17.4518812 150.432287,17.1857426 149.524453,17.1857426 C148.666143,17.1857426 147.94363,17.4435644 147.35811,17.9592079 C146.771792,18.4748515 146.412332,19.1912871 146.280531,20.1077228 L152.793137,20.1077228 Z M156.284687,22.4158416 L146.255768,22.4158416 C146.338444,23.3980198 146.685122,24.1675248 147.295804,24.7239604 C147.906486,25.2807921 148.657756,25.5588119 149.549215,25.5588119 C150.837278,25.5588119 151.753101,25.010297 152.297882,23.9136634 L156.037059,23.9136634 C155.640855,25.2233663 154.881597,26.299802 153.758885,27.1425743 C152.635774,27.9857426 151.257846,28.4071287 149.623504,28.4071287 C148.30269,28.4071287 147.118471,28.1168317 146.070047,27.5354455 C145.021624,26.9544554 144.204453,26.1318812 143.618534,25.0677228 C143.032615,24.0035644 142.739456,22.7762376 142.739456,21.3845545 C142.739456,19.9766337 143.028221,18.7409901 143.606152,17.6768317 C144.183684,16.6130693 144.993266,15.7944554 146.032903,15.2213861 C147.073338,14.6487129 148.269939,14.3619802 149.623504,14.3619802 C150.927543,14.3619802 152.095786,14.640396 153.127434,15.1968317 C154.159083,15.7532673 154.959879,16.5433663 155.529822,17.5663366 C156.098966,18.589703 156.383738,19.7639604 156.383738,21.089901 C156.383738,21.5809901 156.350588,22.0229703 156.284687,22.4158416 L156.284687,22.4158416 Z" id="Fill-20" fill="#FFFFFF"></path>
                    <path d="M158.228284,15.061703 C158.99593,13.7278416 160.044353,12.6882376 161.373155,11.9432871 C162.701957,11.1987327 164.192116,10.8260594 165.842834,10.8260594 C167.774329,10.8260594 169.466584,11.3171485 170.9192,12.2993267 C172.371816,13.281505 173.387089,14.6407129 173.96502,16.3753663 L169.978215,16.3753663 C169.58241,15.5571485 169.024849,14.9432871 168.306728,14.5337822 C167.589008,14.1246733 166.759056,13.9199208 165.818071,13.9199208 C164.810786,13.9199208 163.915332,14.1531881 163.131311,14.6197228 C162.34729,15.0862574 161.736209,15.7456634 161.298867,16.5963564 C160.861524,17.4478416 160.642653,18.4462574 160.642653,19.592 C160.642653,20.721505 160.861524,21.7159604 161.298867,22.5753663 C161.736209,23.4347723 162.34729,24.0977426 163.131311,24.5642772 C163.915332,25.0308119 164.810786,25.2640792 165.818071,25.2640792 C166.759056,25.2640792 167.589008,25.0553663 168.306728,24.6379406 C169.024849,24.2205149 169.58241,23.6026931 169.978215,22.7840792 L173.96502,22.7840792 C173.387089,24.5357624 172.376209,25.8985347 170.931981,26.872396 C169.486554,27.8466535 167.790704,28.3333861 165.842834,28.3333861 C164.192116,28.3333861 162.701957,27.9611089 161.373155,27.2161584 C160.044353,26.471604 158.99593,25.4359604 158.228284,24.1100198 C157.460638,22.7840792 157.076816,21.2783366 157.076816,19.592 C157.076816,17.9064554 157.460638,16.3963564 158.228284,15.061703" id="Fill-22" fill="#FFFFFF"></path>
                    <polygon id="Fill-24" fill="#FFFFFF" points="194.790104 11.0471683 194.790104 28.1861782 191.323317 28.1861782 191.323317 17.0384554 186.69268 28.1861782 184.067828 28.1861782 179.412428 17.0384554 179.412428 28.1861782 175.945641 28.1861782 175.945641 11.0471683 179.882921 11.0471683 185.380254 23.7909307 190.877587 11.0471683"></polygon>
                    <path d="M199.928497,27.7440792 C198.962749,27.3349703 198.198698,26.7456634 197.637941,25.9761584 C197.076386,25.2070495 196.78762,24.2985347 196.771245,23.2506139 L200.485659,23.2506139 C200.535185,23.9547723 200.786407,24.5112079 201.240524,24.9203168 C201.694641,25.3298218 202.317704,25.5341782 203.110512,25.5341782 C203.918896,25.5341782 204.55474,25.342099 205.016845,24.9571485 C205.47895,24.5729901 205.710602,24.0696238 205.710602,23.4470495 C205.710602,22.9401188 205.553239,22.522297 205.24011,22.1947723 C204.926182,21.8676436 204.533971,21.6098218 204.063878,21.4213069 C203.593386,21.2335842 202.945161,21.0248713 202.119602,20.7951683 C200.99729,20.4680396 200.085062,20.1444752 199.383716,19.8252673 C198.681572,19.5060594 198.079278,19.0232871 197.575635,18.3765545 C197.072392,17.7302178 196.82077,16.8664554 196.82077,15.7860594 C196.82077,14.7714059 197.076386,13.8874455 197.588416,13.1341782 C198.099647,12.3813069 198.818167,11.8042772 199.742377,11.4030891 C200.666986,11.002297 201.723398,10.801505 202.91241,10.801505 C204.695329,10.801505 206.14395,11.2312079 207.258275,12.0906139 C208.372599,12.9500198 208.987275,14.1492277 209.103101,15.6878416 L205.289635,15.6878416 C205.256086,15.0985347 205.004863,14.611802 204.533971,14.2268515 C204.063878,13.842297 203.440416,13.6498218 202.664782,13.6498218 C201.987401,13.6498218 201.447013,13.821703 201.042821,14.1654653 C200.63783,14.5092277 200.436134,15.0090297 200.436134,15.6632871 C200.436134,16.121901 200.588305,16.502495 200.894245,16.8050693 C201.199386,17.1084356 201.578815,17.3539802 202.033332,17.541703 C202.48705,17.7302178 203.126488,17.9468515 203.952047,18.192396 C205.074758,18.5199208 205.99098,18.8474455 206.701113,19.1745743 C207.410446,19.502099 208.021527,19.9935842 208.533557,20.6478416 C209.044788,21.3028911 209.301203,22.162297 209.301203,23.2260594 C209.301203,24.1432871 209.061563,24.9939802 208.583083,25.7797228 C208.104203,26.5654653 207.402458,27.191604 206.477848,27.6581386 C205.553239,28.1246733 204.455689,28.3579406 203.184401,28.3579406 C201.979413,28.3579406 200.894245,28.1535842 199.928497,27.7440792" id="Fill-26" fill="#FFFFFF"></path>
                    <path d="M210.97241,27.9405545 C210.73277,27.6950099 210.61335,27.3924356 210.61335,27.0320396 C210.61335,26.6720396 210.73277,26.3734257 210.97241,26.135802 C211.21165,25.8985743 211.512797,25.7797624 211.87625,25.7797624 C212.222929,25.7797624 212.515689,25.8985743 212.755328,26.135802 C212.994169,26.3734257 213.113989,26.6720396 213.113989,27.0320396 C213.113989,27.3924356 212.994169,27.6950099 212.755328,27.9405545 C212.515689,28.186099 212.222929,28.3088713 211.87625,28.3088713 C211.512797,28.3088713 211.21165,28.186099 210.97241,27.9405545" id="Fill-28" fill="#FFFFFF"></path>
                    <path d="M223.489547,26.2830891 C224.248805,25.882297 224.86388,25.2763564 225.334373,24.4660594 C225.805265,23.6557624 226.040511,22.6613069 226.040511,21.4826931 C226.040511,20.3040792 225.809259,19.3096238 225.346754,18.4993267 C224.884649,17.6890297 224.273568,17.0834851 223.51431,16.682297 C222.755051,16.281505 221.929892,16.0807129 221.038033,16.0807129 C220.146973,16.0807129 219.321015,16.281505 218.561757,16.682297 C217.802499,17.0834851 217.195811,17.6890297 216.741694,18.4993267 C216.287577,19.3096238 216.060718,20.3040792 216.060718,21.4826931 C216.060718,22.6613069 216.287577,23.6557624 216.741694,24.4660594 C217.195811,25.2763564 217.798105,25.882297 218.549775,26.2830891 C219.300646,26.6846733 220.121811,26.8846733 221.01367,26.8846733 C221.90473,26.8846733 222.730289,26.6846733 223.489547,26.2830891 M217.584027,27.5353663 C216.568754,26.9706139 215.767559,26.1686337 215.18164,25.1290297 C214.595322,24.0898218 214.302562,22.8743762 214.302562,21.4826931 C214.302562,20.091802 214.599715,18.8759604 215.194021,17.8363564 C215.788727,16.7971485 216.597111,15.9947723 217.621171,15.4300198 C218.644433,14.8652673 219.791508,14.5828911 221.063195,14.5828911 C222.333685,14.5828911 223.485553,14.8652673 224.517201,15.4300198 C225.54885,15.9947723 226.358033,16.7971485 226.943952,17.8363564 C227.529871,18.8759604 227.82343,20.091802 227.82343,21.4826931 C227.82343,22.8577426 227.525877,24.0696238 226.931571,25.1167525 C226.337664,26.1646733 225.520093,26.9706139 224.480057,27.5353663 C223.440021,28.1001188 222.284159,28.382495 221.01367,28.382495 C219.741982,28.382495 218.599301,28.1001188 217.584027,27.5353663" id="Fill-30" fill="#FFFFFF"></path>
                    <path d="M233.481162,15.2214257 C234.265183,14.7632079 235.226937,14.533901 236.366024,14.533901 L236.366024,16.3263762 L235.895531,16.3263762 C234.640618,16.3263762 233.633732,16.6622178 232.874474,17.3331089 C232.114816,18.004396 231.735387,19.1255842 231.735387,20.6970693 L231.735387,28.1861782 L230.001994,28.1861782 L230.001994,14.7794455 L231.735387,14.7794455 L231.735387,17.1612277 C232.114816,16.3263762 232.696741,15.6800396 233.481162,15.2214257" id="Fill-32" fill="#FFFFFF"></path>
                    <g id="Group-36" transform="translate(237.183155, 14.582891)">
                        <mask id="mask-4" fill="white">
                            <use xlink:href="#path-3"></use>
                        </mask>
                        <g id="Clip-35"></g>
                        <path d="M11.1432432,4.05148515 C10.6975135,3.23326733 10.0908258,2.60277228 9.32318018,2.16079208 C8.55553453,1.71881188 7.70920721,1.49782178 6.784997,1.49782178 C5.82723724,1.49782178 4.96892793,1.71089109 4.20966967,2.13623762 C3.45001201,2.5619802 2.85131231,3.17980198 2.41476877,3.99009901 C1.97702703,4.80039604 1.75815616,5.76237624 1.75815616,6.87524752 C1.75815616,7.97227723 1.97702703,8.93425743 2.41476877,9.76039604 C2.85131231,10.5873267 3.45001201,11.2174257 4.20966967,11.6510891 C4.96892793,12.0851485 5.82723724,12.3017822 6.784997,12.3017822 C7.70920721,12.3017822 8.55553453,12.0807921 9.32318018,11.6388119 C10.0908258,11.1968317 10.6975135,10.5671287 11.1432432,9.74811881 C11.588973,8.92990099 11.8118378,7.98019802 11.8118378,6.89980198 C11.8118378,5.81940594 11.588973,4.87009901 11.1432432,4.05148515 M9.78129129,0.883960396 C10.7222763,1.47326733 11.3992583,2.21861386 11.8118378,3.11841584 L11.8118378,0.196435644 L13.5452312,0.196435644 L13.5452312,13.9469307 C13.5452312,15.1746535 13.2768348,16.2629703 12.7404414,17.2126733 C12.2036486,18.1619802 11.4567718,18.8946535 10.4994114,19.410297 C9.54165165,19.9259406 8.45248949,20.1837624 7.23072673,20.1837624 C5.49733333,20.1837624 4.0570991,19.7742574 2.90962462,18.9560396 C1.76215015,18.1374257 1.04842342,17.0241584 0.767645646,15.6166337 L2.47627628,15.6166337 C2.77342943,16.549703 3.33857958,17.2942574 4.17252553,17.8510891 C5.00607207,18.4075248 6.02573874,18.6859406 7.23072673,18.6859406 C8.10581081,18.6859406 8.88983183,18.5017822 9.58318919,18.1334653 C10.2765465,17.7651485 10.8213273,17.2205941 11.2175315,16.5005941 C11.6137357,15.780198 11.8118378,14.9291089 11.8118378,13.9469307 L11.8118378,10.6320792 C11.3824835,11.5493069 10.7015075,12.3061386 9.76890991,12.9033663 C8.83631231,13.5009901 7.73436937,13.799604 6.46308108,13.799604 C5.22494294,13.799604 4.11421321,13.5136634 3.13248949,12.940198 C2.14996697,12.3675248 1.38272072,11.5572277 0.829552553,10.5093069 C0.276384384,9.46217822 0,8.25029703 0,6.87524752 C0,5.50019802 0.276384384,4.29306931 0.829552553,3.25346535 C1.38272072,2.21425743 2.14996697,1.41188119 3.13248949,0.847128713 C4.11421321,0.282376238 5.22494294,0 6.46308108,0 C7.73436937,0 8.84030631,0.294653465 9.78129129,0.883960396" id="Fill-34" fill="#FFFFFF" mask="url(#mask-4)"></path>
                    </g>
                </g>
            </g>
        </g>
    </g>
</svg>
