<?xml version="1.0" encoding="UTF-8"?>
<svg width="98px" height="98px" viewBox="0 0 98 98" version="1.1" xmlns="http://www.w3.org/2000/svg" xmlns:xlink="http://www.w3.org/1999/xlink">
    <title>logo hand</title>
    <defs>
        <polygon id="path-1" points="0 0.5181 99.4818 0.5181 99.4818 100 0 100"></polygon>
    </defs>
    <g id="Symbols" stroke="none" stroke-width="1" fill="none" fill-rule="evenodd">
        <g id="Group-36" transform="translate(-1.000000, -2.000000)">
            <g id="Group-3" transform="translate(0.000000, 0.481900)">
                <mask id="mask-2" fill="white">
                    <use xlink:href="#path-1"></use>
                </mask>
                <g id="Clip-2"></g>
                <rect id="Rectangle" fill="#19191A" mask="url(#mask-2)" x="1" y="1.5181" width="98" height="98" rx="8"></rect>
            </g>
            <path d="M60.0245,83.627 C57.2415,85.148 53.6075,86.053 51.4905,86.227 C43.1135,86.916 34.6945,84.75 28.8825,79.126 C23.1775,73.14 21.9955,65.16 27.1715,58.56 C31.9765,52.432 39.7755,49.809 47.8775,49.491 C52.3685,49.311 67.5525,51.043 63.1085,58.42 C59.5025,64.408 49.5695,58.422 43.8875,60.301 C37.4965,62.412 35.6435,70.92 41.6985,74.478 C46.1195,77.08 52.4135,76.864 56.5595,74.139 C62.5705,70.194 73.7215,51.987 80.9715,60.623 C82.4375,62.367 65.5445,80.605 60.0245,83.627 M17.7785,36.189 C17.1665,33.186 17.9875,29.765 20.9985,30.206 C23.5865,30.588 24.5485,34.271 24.9775,36.88 C25.3345,39.037 30.7715,54.719 27.9645,54.158 C25.3255,53.633 18.4145,39.308 17.7785,36.189 M32.2135,18.7 C36.2115,15.34 38.1525,21.117 38.5815,23.995 C39.0085,26.822 44.0525,48.026 38.6975,47.627 C34.5695,47.318 31.8375,29.35 31.4875,26.504 C31.1135,24.306 30.2075,20.386 32.2135,18.7 M52.7975,12.691 C56.2395,13.357 55.2475,20.426 55.2425,22.972 C55.2405,25.808 55.5375,46.678 51.1885,46.062 C46.6405,45.419 47.6955,24.697 47.5015,21.353 C47.6035,18.004 48.0765,11.775 52.7975,12.691 M63.1835,27.735 C63.5495,25.618 63.9815,21.775 66.3515,20.848 C71.0725,18.992 70.9875,24.841 70.4565,27.599 C69.9315,30.303 66.2955,51.384 61.5455,49.401 C57.8815,47.868 62.5895,30.435 63.1835,27.735" id="Fill-4" fill="#FFFFFF"></path>
        </g>
    </g>
</svg>